<svg width="313" height="213" viewBox="0 0 313 213" fill="none" xmlns="http://www.w3.org/2000/svg">
<line x1="55.3783" y1="0.043457" x2="55.3783" y2="198.008" stroke="#B1B1B1" stroke-width="0.2"/>
<line x1="110.972" y1="0.043457" x2="110.972" y2="198.008" stroke="#B1B1B1" stroke-width="0.2"/>
<line x1="166.565" y1="0.043457" x2="166.565" y2="198.008" stroke="#B1B1B1" stroke-width="0.2"/>
<line x1="222.158" y1="0.043457" x2="222.158" y2="198.008" stroke="#B1B1B1" stroke-width="0.2"/>
<line x1="277.751" y1="0.043457" x2="277.751" y2="198.008" stroke="#B1B1B1" stroke-width="0.2"/>
<line x1="0.733948" y1="197.908" x2="311.217" y2="197.908" stroke="#B1B1B1" stroke-width="0.2"/>
<line x1="0.733948" y1="162.295" x2="311.217" y2="162.295" stroke="#B1B1B1" stroke-width="0.2"/>
<line x1="0.733948" y1="126.683" x2="311.217" y2="126.683" stroke="#B1B1B1" stroke-width="0.2"/>
<line x1="0.733948" y1="91.0699" x2="311.217" y2="91.0699" stroke="#B1B1B1" stroke-width="0.2"/>
<line x1="0.733948" y1="55.4574" x2="311.217" y2="55.4574" stroke="#B1B1B1" stroke-width="0.2"/>
<line x1="0.733948" y1="19.8447" x2="311.217" y2="19.8447" stroke="#B1B1B1" stroke-width="0.2"/>
<path d="M4.28073 185.059C4.49406 184.799 4.73406 184.619 5.00073 184.519C5.26739 184.413 5.59406 184.359 5.98073 184.359C6.36739 184.359 6.69406 184.413 6.96073 184.519C7.23406 184.619 7.47406 184.799 7.68073 185.059C8.08073 185.553 8.28073 186.499 8.28073 187.899C8.28073 189.139 8.07406 189.999 7.66073 190.479C7.45406 190.719 7.21406 190.893 6.94073 190.999C6.67406 191.099 6.35406 191.149 5.98073 191.149C5.60739 191.149 5.28406 191.099 5.01073 190.999C4.74406 190.899 4.50739 190.733 4.30073 190.499C3.88073 190.026 3.67073 189.163 3.67073 187.909C3.67073 186.516 3.87406 185.566 4.28073 185.059ZM7.68073 185.929C7.53406 185.456 7.32406 185.133 7.05073 184.959C6.78406 184.786 6.42406 184.699 5.97073 184.699C5.52406 184.699 5.16739 184.786 4.90073 184.959C4.33406 185.319 4.05073 186.306 4.05073 187.919C4.05073 189.059 4.22406 189.836 4.57073 190.249C4.74406 190.456 4.94073 190.603 5.16073 190.689C5.38739 190.769 5.68739 190.809 6.06073 190.809C6.43406 190.809 6.75406 190.736 7.02073 190.589C7.28739 190.436 7.50073 190.143 7.66073 189.709C7.82073 189.269 7.90073 188.649 7.90073 187.849C7.90073 187.043 7.82739 186.403 7.68073 185.929Z" fill="#17324D"/>
<path d="M7.73179 155.447H3.55179V155.137L5.82179 152.717C6.14845 152.37 6.38845 152.107 6.54179 151.927C6.69512 151.747 6.83179 151.523 6.95179 151.257C7.07845 150.99 7.14179 150.72 7.14179 150.447C7.14179 149.96 7.00179 149.613 6.72179 149.407C6.44845 149.2 6.02845 149.097 5.46179 149.097C5.00845 149.097 4.50179 149.16 3.94179 149.287L3.66179 149.357L3.61179 149.017C4.23179 148.843 4.86512 148.757 5.51179 148.757C6.16512 148.757 6.66179 148.887 7.00179 149.147C7.34845 149.407 7.52179 149.84 7.52179 150.447C7.52179 150.893 7.42179 151.283 7.22179 151.617C7.02179 151.943 6.68512 152.35 6.21179 152.837L4.04179 155.127H7.73179V155.447ZM9.52749 149.447C9.74082 149.187 9.98082 149.007 10.2475 148.907C10.5142 148.8 10.8408 148.747 11.2275 148.747C11.6142 148.747 11.9408 148.8 12.2075 148.907C12.4808 149.007 12.7208 149.187 12.9275 149.447C13.3275 149.94 13.5275 150.887 13.5275 152.287C13.5275 153.527 13.3208 154.387 12.9075 154.867C12.7008 155.107 12.4608 155.28 12.1875 155.387C11.9208 155.487 11.6008 155.537 11.2275 155.537C10.8542 155.537 10.5308 155.487 10.2575 155.387C9.99082 155.287 9.75416 155.12 9.54749 154.887C9.12749 154.413 8.91749 153.55 8.91749 152.297C8.91749 150.903 9.12082 149.953 9.52749 149.447ZM12.9275 150.317C12.7808 149.843 12.5708 149.52 12.2975 149.347C12.0308 149.173 11.6708 149.087 11.2175 149.087C10.7708 149.087 10.4142 149.173 10.1475 149.347C9.58082 149.707 9.29749 150.693 9.29749 152.307C9.29749 153.447 9.47082 154.223 9.81749 154.637C9.99082 154.843 10.1875 154.99 10.4075 155.077C10.6342 155.157 10.9342 155.197 11.3075 155.197C11.6808 155.197 12.0008 155.123 12.2675 154.977C12.5342 154.823 12.7475 154.53 12.9075 154.097C13.0675 153.657 13.1475 153.037 13.1475 152.237C13.1475 151.43 13.0742 150.79 12.9275 150.317ZM15.3032 152.157V155.447H14.9432V148.447H15.3032V151.817H16.5932L18.7932 148.447H19.2232L16.9132 151.967L19.3832 155.447H18.9232L16.6132 152.157H15.3032Z" fill="#17324D"/>
<path d="M42.7422 206.008C42.9555 205.748 43.1955 205.568 43.4622 205.468C43.7289 205.361 44.0555 205.308 44.4422 205.308C44.8289 205.308 45.1555 205.361 45.4222 205.468C45.6955 205.568 45.9355 205.748 46.1422 206.008C46.5422 206.501 46.7422 207.448 46.7422 208.848C46.7422 210.088 46.5355 210.948 46.1222 211.428C45.9155 211.668 45.6755 211.841 45.4022 211.948C45.1355 212.048 44.8155 212.098 44.4422 212.098C44.0689 212.098 43.7455 212.048 43.4722 211.948C43.2055 211.848 42.9689 211.681 42.7622 211.448C42.3422 210.975 42.1322 210.111 42.1322 208.858C42.1322 207.465 42.3355 206.515 42.7422 206.008ZM46.1422 206.878C45.9955 206.405 45.7855 206.081 45.5122 205.908C45.2455 205.735 44.8855 205.648 44.4322 205.648C43.9855 205.648 43.6289 205.735 43.3622 205.908C42.7955 206.268 42.5122 207.255 42.5122 208.868C42.5122 210.008 42.6855 210.785 43.0322 211.198C43.2055 211.405 43.4022 211.551 43.6222 211.638C43.8489 211.718 44.1489 211.758 44.5222 211.758C44.8955 211.758 45.2155 211.685 45.4822 211.538C45.7489 211.385 45.9622 211.091 46.1222 210.658C46.2822 210.218 46.3622 209.598 46.3622 208.798C46.3622 207.991 46.2889 207.351 46.1422 206.878ZM50.9279 205.408V212.008H50.5679V205.798L48.6979 207.058L48.5279 206.768L50.5679 205.408H50.9279ZM53.5836 212.008V211.208H53.9836V212.008H53.5836ZM55.8379 206.008C56.0512 205.748 56.2912 205.568 56.5579 205.468C56.8246 205.361 57.1512 205.308 57.5379 205.308C57.9246 205.308 58.2512 205.361 58.5179 205.468C58.7912 205.568 59.0312 205.748 59.2379 206.008C59.6379 206.501 59.8379 207.448 59.8379 208.848C59.8379 210.088 59.6312 210.948 59.2179 211.428C59.0112 211.668 58.7712 211.841 58.4979 211.948C58.2312 212.048 57.9112 212.098 57.5379 212.098C57.1646 212.098 56.8412 212.048 56.5679 211.948C56.3012 211.848 56.0646 211.681 55.8579 211.448C55.4379 210.975 55.2279 210.111 55.2279 208.858C55.2279 207.465 55.4312 206.515 55.8379 206.008ZM59.2379 206.878C59.0912 206.405 58.8812 206.081 58.6079 205.908C58.3412 205.735 57.9812 205.648 57.5279 205.648C57.0812 205.648 56.7246 205.735 56.4579 205.908C55.8912 206.268 55.6079 207.255 55.6079 208.868C55.6079 210.008 55.7812 210.785 56.1279 211.198C56.3012 211.405 56.4979 211.551 56.7179 211.638C56.9446 211.718 57.2446 211.758 57.6179 211.758C57.9912 211.758 58.3112 211.685 58.5779 211.538C58.8446 211.385 59.0579 211.091 59.2179 210.658C59.3779 210.218 59.4579 209.598 59.4579 208.798C59.4579 207.991 59.3846 207.351 59.2379 206.878ZM61.1236 205.528C61.757 205.381 62.417 205.308 63.1036 205.308C63.7903 205.308 64.287 205.441 64.5936 205.708C64.9003 205.968 65.0536 206.385 65.0536 206.958C65.0536 207.191 65.0136 207.405 64.9336 207.598C64.8603 207.785 64.7703 207.931 64.6636 208.038C64.557 208.138 64.447 208.225 64.3336 208.298C64.1403 208.418 64.0036 208.478 63.9236 208.478C64.357 208.591 64.6836 208.768 64.9036 209.008C65.1303 209.248 65.2436 209.668 65.2436 210.268C65.2436 211.488 64.5503 212.098 63.1636 212.098C62.5703 212.098 61.947 212.041 61.2936 211.928L60.9936 211.868L61.0536 211.528C61.7536 211.681 62.457 211.758 63.1636 211.758C64.297 211.751 64.8636 211.238 64.8636 210.218C64.8636 209.671 64.717 209.288 64.4236 209.068C64.137 208.841 63.7436 208.715 63.2436 208.688H61.9036V208.348H63.2336C63.5603 208.348 63.8803 208.225 64.1936 207.978C64.5136 207.731 64.6736 207.381 64.6736 206.928C64.6736 206.468 64.5536 206.141 64.3136 205.948C64.0803 205.748 63.6703 205.648 63.0836 205.648C62.497 205.648 61.947 205.701 61.4336 205.808L61.1836 205.868L61.1236 205.528Z" fill="#17324D"/>
<path d="M98.3355 206.008C98.5488 205.748 98.7888 205.568 99.0555 205.468C99.3221 205.361 99.6488 205.308 100.035 205.308C100.422 205.308 100.749 205.361 101.015 205.468C101.289 205.568 101.529 205.748 101.735 206.008C102.135 206.501 102.335 207.448 102.335 208.848C102.335 210.088 102.129 210.948 101.715 211.428C101.509 211.668 101.269 211.841 100.995 211.948C100.729 212.048 100.409 212.098 100.035 212.098C99.6621 212.098 99.3388 212.048 99.0655 211.948C98.7988 211.848 98.5621 211.681 98.3555 211.448C97.9355 210.975 97.7255 210.111 97.7255 208.858C97.7255 207.465 97.9288 206.515 98.3355 206.008ZM101.735 206.878C101.589 206.405 101.379 206.081 101.105 205.908C100.839 205.735 100.479 205.648 100.025 205.648C99.5788 205.648 99.2221 205.735 98.9555 205.908C98.3888 206.268 98.1055 207.255 98.1055 208.868C98.1055 210.008 98.2788 210.785 98.6255 211.198C98.7988 211.405 98.9955 211.551 99.2155 211.638C99.4421 211.718 99.7421 211.758 100.115 211.758C100.489 211.758 100.809 211.685 101.075 211.538C101.342 211.385 101.555 211.091 101.715 210.658C101.875 210.218 101.955 209.598 101.955 208.798C101.955 207.991 101.882 207.351 101.735 206.878ZM105.611 205.308C106.351 205.308 106.931 205.445 107.351 205.718C107.771 205.985 107.981 206.398 107.981 206.958C107.981 207.391 107.871 207.728 107.651 207.968C107.431 208.208 107.088 208.395 106.621 208.528C107.088 208.661 107.448 208.858 107.701 209.118C107.955 209.371 108.081 209.738 108.081 210.218C108.081 210.911 107.858 211.398 107.411 211.678C106.971 211.958 106.381 212.098 105.641 212.098C104.901 212.098 104.305 211.961 103.851 211.688C103.398 211.408 103.171 210.955 103.171 210.328C103.171 209.821 103.281 209.441 103.501 209.188C103.728 208.935 104.068 208.715 104.521 208.528C104.108 208.381 103.798 208.188 103.591 207.948C103.385 207.708 103.281 207.375 103.281 206.948C103.281 205.855 104.058 205.308 105.611 205.308ZM105.611 211.758C106.265 211.758 106.775 211.645 107.141 211.418C107.515 211.191 107.701 210.795 107.701 210.228C107.701 209.715 107.545 209.355 107.231 209.148C107.065 209.035 106.905 208.951 106.751 208.898C106.598 208.838 106.395 208.775 106.141 208.708H104.971C104.505 208.821 104.151 208.998 103.911 209.238C103.678 209.478 103.561 209.838 103.561 210.318C103.561 211.278 104.245 211.758 105.611 211.758ZM107.591 206.908C107.591 206.481 107.421 206.165 107.081 205.958C106.741 205.751 106.251 205.648 105.611 205.648C104.978 205.648 104.495 205.748 104.161 205.948C103.828 206.148 103.661 206.465 103.661 206.898C103.661 207.331 103.765 207.655 103.971 207.868C104.185 208.081 104.518 208.251 104.971 208.378H106.141C106.628 208.265 106.991 208.098 107.231 207.878C107.471 207.658 107.591 207.335 107.591 206.908ZM109.177 212.008V211.208H109.577V212.008H109.177ZM111.431 206.008C111.645 205.748 111.885 205.568 112.151 205.468C112.418 205.361 112.745 205.308 113.131 205.308C113.518 205.308 113.845 205.361 114.111 205.468C114.385 205.568 114.625 205.748 114.831 206.008C115.231 206.501 115.431 207.448 115.431 208.848C115.431 210.088 115.225 210.948 114.811 211.428C114.605 211.668 114.365 211.841 114.091 211.948C113.825 212.048 113.505 212.098 113.131 212.098C112.758 212.098 112.435 212.048 112.161 211.948C111.895 211.848 111.658 211.681 111.451 211.448C111.031 210.975 110.821 210.111 110.821 208.858C110.821 207.465 111.025 206.515 111.431 206.008ZM114.831 206.878C114.685 206.405 114.475 206.081 114.201 205.908C113.935 205.735 113.575 205.648 113.121 205.648C112.675 205.648 112.318 205.735 112.051 205.908C111.485 206.268 111.201 207.255 111.201 208.868C111.201 210.008 111.375 210.785 111.721 211.198C111.895 211.405 112.091 211.551 112.311 211.638C112.538 211.718 112.838 211.758 113.211 211.758C113.585 211.758 113.905 211.685 114.171 211.538C114.438 211.385 114.651 211.091 114.811 210.658C114.971 210.218 115.051 209.598 115.051 208.798C115.051 207.991 114.978 207.351 114.831 206.878ZM116.717 205.528C117.35 205.381 118.01 205.308 118.697 205.308C119.384 205.308 119.88 205.441 120.187 205.708C120.494 205.968 120.647 206.385 120.647 206.958C120.647 207.191 120.607 207.405 120.527 207.598C120.454 207.785 120.364 207.931 120.257 208.038C120.15 208.138 120.04 208.225 119.927 208.298C119.734 208.418 119.597 208.478 119.517 208.478C119.95 208.591 120.277 208.768 120.497 209.008C120.724 209.248 120.837 209.668 120.837 210.268C120.837 211.488 120.144 212.098 118.757 212.098C118.164 212.098 117.54 212.041 116.887 211.928L116.587 211.868L116.647 211.528C117.347 211.681 118.05 211.758 118.757 211.758C119.89 211.751 120.457 211.238 120.457 210.218C120.457 209.671 120.31 209.288 120.017 209.068C119.73 208.841 119.337 208.715 118.837 208.688H117.497V208.348H118.827C119.154 208.348 119.474 208.225 119.787 207.978C120.107 207.731 120.267 207.381 120.267 206.928C120.267 206.468 120.147 206.141 119.907 205.948C119.674 205.748 119.264 205.648 118.677 205.648C118.09 205.648 117.54 205.701 117.027 205.808L116.777 205.868L116.717 205.528Z" fill="#17324D"/>
<path d="M156.519 205.408V212.008H156.159V205.798L154.289 207.058L154.119 206.768L156.159 205.408H156.519ZM163.104 205.408V205.768H159.724L159.544 208.398C159.771 208.265 160.058 208.148 160.404 208.048C160.751 207.941 161.061 207.888 161.334 207.888C162.721 207.888 163.414 208.528 163.414 209.808C163.414 210.561 163.221 211.128 162.834 211.508C162.454 211.888 161.921 212.078 161.234 212.078C160.641 212.078 160.044 212.018 159.444 211.898L159.144 211.838L159.194 211.498C159.928 211.658 160.588 211.738 161.174 211.738C161.761 211.738 162.218 211.571 162.544 211.238C162.871 210.905 163.034 210.428 163.034 209.808C163.034 208.755 162.464 208.228 161.324 208.228C161.058 208.228 160.774 208.275 160.474 208.368C160.181 208.461 159.951 208.555 159.784 208.648L159.534 208.778L159.194 208.738L159.384 205.408H163.104ZM164.77 212.008V211.208H165.17V212.008H164.77ZM167.024 206.008C167.238 205.748 167.478 205.568 167.744 205.468C168.011 205.361 168.338 205.308 168.724 205.308C169.111 205.308 169.438 205.361 169.704 205.468C169.978 205.568 170.218 205.748 170.424 206.008C170.824 206.501 171.024 207.448 171.024 208.848C171.024 210.088 170.818 210.948 170.404 211.428C170.198 211.668 169.958 211.841 169.684 211.948C169.418 212.048 169.098 212.098 168.724 212.098C168.351 212.098 168.028 212.048 167.754 211.948C167.488 211.848 167.251 211.681 167.044 211.448C166.624 210.975 166.414 210.111 166.414 208.858C166.414 207.465 166.618 206.515 167.024 206.008ZM170.424 206.878C170.278 206.405 170.068 206.081 169.794 205.908C169.528 205.735 169.168 205.648 168.714 205.648C168.268 205.648 167.911 205.735 167.644 205.908C167.078 206.268 166.794 207.255 166.794 208.868C166.794 210.008 166.968 210.785 167.314 211.198C167.488 211.405 167.684 211.551 167.904 211.638C168.131 211.718 168.431 211.758 168.804 211.758C169.178 211.758 169.498 211.685 169.764 211.538C170.031 211.385 170.244 211.091 170.404 210.658C170.564 210.218 170.644 209.598 170.644 208.798C170.644 207.991 170.571 207.351 170.424 206.878ZM172.31 205.528C172.943 205.381 173.603 205.308 174.29 205.308C174.977 205.308 175.473 205.441 175.78 205.708C176.087 205.968 176.24 206.385 176.24 206.958C176.24 207.191 176.2 207.405 176.12 207.598C176.047 207.785 175.957 207.931 175.85 208.038C175.743 208.138 175.633 208.225 175.52 208.298C175.327 208.418 175.19 208.478 175.11 208.478C175.543 208.591 175.87 208.768 176.09 209.008C176.317 209.248 176.43 209.668 176.43 210.268C176.43 211.488 175.737 212.098 174.35 212.098C173.757 212.098 173.133 212.041 172.48 211.928L172.18 211.868L172.24 211.528C172.94 211.681 173.643 211.758 174.35 211.758C175.483 211.751 176.05 211.238 176.05 210.218C176.05 209.671 175.903 209.288 175.61 209.068C175.323 208.841 174.93 208.715 174.43 208.688H173.09V208.348H174.42C174.747 208.348 175.067 208.225 175.38 207.978C175.7 207.731 175.86 207.381 175.86 206.928C175.86 206.468 175.74 206.141 175.5 205.948C175.267 205.748 174.857 205.648 174.27 205.648C173.683 205.648 173.133 205.701 172.62 205.808L172.37 205.868L172.31 205.528Z" fill="#17324D"/>
<path d="M213.322 212.008H209.142V211.698L211.412 209.278C211.739 208.931 211.979 208.668 212.132 208.488C212.285 208.308 212.422 208.085 212.542 207.818C212.669 207.551 212.732 207.281 212.732 207.008C212.732 206.521 212.592 206.175 212.312 205.968C212.039 205.761 211.619 205.658 211.052 205.658C210.599 205.658 210.092 205.721 209.532 205.848L209.252 205.918L209.202 205.578C209.822 205.405 210.455 205.318 211.102 205.318C211.755 205.318 212.252 205.448 212.592 205.708C212.939 205.968 213.112 206.401 213.112 207.008C213.112 207.455 213.012 207.845 212.812 208.178C212.612 208.505 212.275 208.911 211.802 209.398L209.632 211.688H213.322V212.008ZM218.918 212.008H214.738V211.698L217.008 209.278C217.334 208.931 217.574 208.668 217.728 208.488C217.881 208.308 218.018 208.085 218.138 207.818C218.264 207.551 218.328 207.281 218.328 207.008C218.328 206.521 218.188 206.175 217.908 205.968C217.634 205.761 217.214 205.658 216.648 205.658C216.194 205.658 215.688 205.721 215.128 205.848L214.848 205.918L214.798 205.578C215.418 205.405 216.051 205.318 216.698 205.318C217.351 205.318 217.848 205.448 218.188 205.708C218.534 205.968 218.708 206.401 218.708 207.008C218.708 207.455 218.608 207.845 218.408 208.178C218.208 208.505 217.871 208.911 217.398 209.398L215.228 211.688H218.918V212.008ZM220.363 212.008V211.208H220.763V212.008H220.363ZM222.618 206.008C222.831 205.748 223.071 205.568 223.338 205.468C223.604 205.361 223.931 205.308 224.318 205.308C224.704 205.308 225.031 205.361 225.298 205.468C225.571 205.568 225.811 205.748 226.018 206.008C226.418 206.501 226.618 207.448 226.618 208.848C226.618 210.088 226.411 210.948 225.998 211.428C225.791 211.668 225.551 211.841 225.278 211.948C225.011 212.048 224.691 212.098 224.318 212.098C223.944 212.098 223.621 212.048 223.348 211.948C223.081 211.848 222.844 211.681 222.638 211.448C222.218 210.975 222.008 210.111 222.008 208.858C222.008 207.465 222.211 206.515 222.618 206.008ZM226.018 206.878C225.871 206.405 225.661 206.081 225.388 205.908C225.121 205.735 224.761 205.648 224.308 205.648C223.861 205.648 223.504 205.735 223.238 205.908C222.671 206.268 222.388 207.255 222.388 208.868C222.388 210.008 222.561 210.785 222.908 211.198C223.081 211.405 223.278 211.551 223.498 211.638C223.724 211.718 224.024 211.758 224.398 211.758C224.771 211.758 225.091 211.685 225.358 211.538C225.624 211.385 225.838 211.091 225.998 210.658C226.158 210.218 226.238 209.598 226.238 208.798C226.238 207.991 226.164 207.351 226.018 206.878ZM227.903 205.528C228.537 205.381 229.197 205.308 229.883 205.308C230.57 205.308 231.067 205.441 231.373 205.708C231.68 205.968 231.833 206.385 231.833 206.958C231.833 207.191 231.793 207.405 231.713 207.598C231.64 207.785 231.55 207.931 231.443 208.038C231.337 208.138 231.227 208.225 231.113 208.298C230.92 208.418 230.783 208.478 230.703 208.478C231.137 208.591 231.463 208.768 231.683 209.008C231.91 209.248 232.023 209.668 232.023 210.268C232.023 211.488 231.33 212.098 229.943 212.098C229.35 212.098 228.727 212.041 228.073 211.928L227.773 211.868L227.833 211.528C228.533 211.681 229.237 211.758 229.943 211.758C231.077 211.751 231.643 211.238 231.643 210.218C231.643 209.671 231.497 209.288 231.203 209.068C230.917 208.841 230.523 208.715 230.023 208.688H228.683V208.348H230.013C230.34 208.348 230.66 208.225 230.973 207.978C231.293 207.731 231.453 207.381 231.453 206.928C231.453 206.468 231.333 206.141 231.093 205.948C230.86 205.748 230.45 205.648 229.863 205.648C229.277 205.648 228.727 205.701 228.213 205.808L227.963 205.868L227.903 205.528Z" fill="#17324D"/>
<path d="M268.915 212.008H264.735V211.698L267.005 209.278C267.332 208.931 267.572 208.668 267.725 208.488C267.879 208.308 268.015 208.085 268.135 207.818C268.262 207.551 268.325 207.281 268.325 207.008C268.325 206.521 268.185 206.175 267.905 205.968C267.632 205.761 267.212 205.658 266.645 205.658C266.192 205.658 265.685 205.721 265.125 205.848L264.845 205.918L264.795 205.578C265.415 205.405 266.049 205.318 266.695 205.318C267.349 205.318 267.845 205.448 268.185 205.708C268.532 205.968 268.705 206.401 268.705 207.008C268.705 207.455 268.605 207.845 268.405 208.178C268.205 208.505 267.869 208.911 267.395 209.398L265.225 211.688H268.915V212.008ZM272.081 211.758C272.794 211.758 273.328 211.538 273.681 211.098C274.034 210.658 274.214 209.961 274.221 209.008C273.461 209.301 272.788 209.448 272.201 209.448C270.808 209.448 270.111 208.798 270.111 207.498C270.111 206.831 270.311 206.301 270.711 205.908C271.111 205.515 271.644 205.318 272.311 205.318C273.091 205.318 273.668 205.621 274.041 206.228C274.414 206.828 274.601 207.705 274.601 208.858C274.601 210.005 274.391 210.831 273.971 211.338C273.551 211.845 272.921 212.098 272.081 212.098C271.534 212.098 271.048 212.071 270.621 212.018L270.381 211.988L270.421 211.658C270.968 211.725 271.521 211.758 272.081 211.758ZM272.221 209.108C272.454 209.108 272.738 209.071 273.071 208.998C273.411 208.925 273.691 208.848 273.911 208.768L274.231 208.658C274.184 206.658 273.544 205.658 272.311 205.658C271.751 205.658 271.308 205.825 270.981 206.158C270.654 206.491 270.491 206.938 270.491 207.498C270.491 208.058 270.634 208.468 270.921 208.728C271.208 208.981 271.641 209.108 272.221 209.108ZM275.957 212.008V211.208H276.357V212.008H275.957ZM278.211 206.008C278.424 205.748 278.664 205.568 278.931 205.468C279.198 205.361 279.524 205.308 279.911 205.308C280.298 205.308 280.624 205.361 280.891 205.468C281.164 205.568 281.404 205.748 281.611 206.008C282.011 206.501 282.211 207.448 282.211 208.848C282.211 210.088 282.004 210.948 281.591 211.428C281.384 211.668 281.144 211.841 280.871 211.948C280.604 212.048 280.284 212.098 279.911 212.098C279.538 212.098 279.214 212.048 278.941 211.948C278.674 211.848 278.438 211.681 278.231 211.448C277.811 210.975 277.601 210.111 277.601 208.858C277.601 207.465 277.804 206.515 278.211 206.008ZM281.611 206.878C281.464 206.405 281.254 206.081 280.981 205.908C280.714 205.735 280.354 205.648 279.901 205.648C279.454 205.648 279.098 205.735 278.831 205.908C278.264 206.268 277.981 207.255 277.981 208.868C277.981 210.008 278.154 210.785 278.501 211.198C278.674 211.405 278.871 211.551 279.091 211.638C279.318 211.718 279.618 211.758 279.991 211.758C280.364 211.758 280.684 211.685 280.951 211.538C281.218 211.385 281.431 211.091 281.591 210.658C281.751 210.218 281.831 209.598 281.831 208.798C281.831 207.991 281.758 207.351 281.611 206.878ZM283.497 205.528C284.13 205.381 284.79 205.308 285.477 205.308C286.163 205.308 286.66 205.441 286.967 205.708C287.273 205.968 287.427 206.385 287.427 206.958C287.427 207.191 287.387 207.405 287.307 207.598C287.233 207.785 287.143 207.931 287.037 208.038C286.93 208.138 286.82 208.225 286.707 208.298C286.513 208.418 286.377 208.478 286.297 208.478C286.73 208.591 287.057 208.768 287.277 209.008C287.503 209.248 287.617 209.668 287.617 210.268C287.617 211.488 286.923 212.098 285.537 212.098C284.943 212.098 284.32 212.041 283.667 211.928L283.367 211.868L283.427 211.528C284.127 211.681 284.83 211.758 285.537 211.758C286.67 211.751 287.237 211.238 287.237 210.218C287.237 209.671 287.09 209.288 286.797 209.068C286.51 208.841 286.117 208.715 285.617 208.688H284.277V208.348H285.607C285.933 208.348 286.253 208.225 286.567 207.978C286.887 207.731 287.047 207.381 287.047 206.928C287.047 206.468 286.927 206.141 286.687 205.948C286.453 205.748 286.043 205.648 285.457 205.648C284.87 205.648 284.32 205.701 283.807 205.808L283.557 205.868L283.497 205.528Z" fill="#17324D"/>
<path d="M6.70179 119.834V118.414H3.23179V118.114L5.28179 113.234H5.67179L3.66179 118.074H6.70179V115.884H7.06179V118.074H8.04179V118.414H7.06179V119.834H6.70179ZM9.52749 113.834C9.74082 113.574 9.98082 113.394 10.2475 113.294C10.5142 113.187 10.8408 113.134 11.2275 113.134C11.6142 113.134 11.9408 113.187 12.2075 113.294C12.4808 113.394 12.7208 113.574 12.9275 113.834C13.3275 114.327 13.5275 115.274 13.5275 116.674C13.5275 117.914 13.3208 118.774 12.9075 119.254C12.7008 119.494 12.4608 119.667 12.1875 119.774C11.9208 119.874 11.6008 119.924 11.2275 119.924C10.8542 119.924 10.5308 119.874 10.2575 119.774C9.99082 119.674 9.75416 119.507 9.54749 119.274C9.12749 118.801 8.91749 117.937 8.91749 116.684C8.91749 115.291 9.12082 114.341 9.52749 113.834ZM12.9275 114.704C12.7808 114.231 12.5708 113.907 12.2975 113.734C12.0308 113.561 11.6708 113.474 11.2175 113.474C10.7708 113.474 10.4142 113.561 10.1475 113.734C9.58082 114.094 9.29749 115.081 9.29749 116.694C9.29749 117.834 9.47082 118.611 9.81749 119.024C9.99082 119.231 10.1875 119.377 10.4075 119.464C10.6342 119.544 10.9342 119.584 11.3075 119.584C11.6808 119.584 12.0008 119.511 12.2675 119.364C12.5342 119.211 12.7475 118.917 12.9075 118.484C13.0675 118.044 13.1475 117.424 13.1475 116.624C13.1475 115.817 13.0742 115.177 12.9275 114.704ZM15.3032 116.544V119.834H14.9432V112.834H15.3032V116.204H16.5932L18.7932 112.834H19.2232L16.9132 116.354L19.3832 119.834H18.9232L16.6132 116.544H15.3032Z" fill="#17324D"/>
<path d="M7.55179 77.9613C7.00512 77.9013 6.42512 77.8713 5.81179 77.8713C5.20512 77.8713 4.72179 78.108 4.36179 78.5813C4.00179 79.048 3.81845 79.7346 3.81179 80.6413L4.09179 80.5213C4.28512 80.448 4.54179 80.3713 4.86179 80.2913C5.18179 80.2046 5.47179 80.1613 5.73179 80.1613C7.18512 80.1613 7.91179 80.8213 7.91179 82.1413C7.91179 82.828 7.71845 83.3613 7.33179 83.7413C6.95179 84.1213 6.39845 84.3113 5.67179 84.3113C4.17845 84.3113 3.43179 83.158 3.43179 80.8513C3.43179 79.7313 3.64845 78.898 4.08179 78.3513C4.51512 77.8046 5.11845 77.5313 5.89179 77.5313C6.38512 77.5313 6.87179 77.5546 7.35179 77.6013L7.59179 77.6313L7.55179 77.9613ZM5.72179 80.5013C5.44845 80.5013 5.15179 80.5413 4.83179 80.6213C4.51179 80.7013 4.25845 80.7813 4.07179 80.8613L3.80179 80.9913C3.83512 82.978 4.45845 83.9713 5.67179 83.9713C6.27845 83.9713 6.73845 83.8146 7.05179 83.5013C7.37179 83.188 7.53179 82.748 7.53179 82.1813C7.53179 81.608 7.37179 81.1846 7.05179 80.9113C6.73845 80.638 6.29512 80.5013 5.72179 80.5013ZM9.52749 78.2213C9.74082 77.9613 9.98082 77.7813 10.2475 77.6813C10.5142 77.5746 10.8408 77.5213 11.2275 77.5213C11.6142 77.5213 11.9408 77.5746 12.2075 77.6813C12.4808 77.7813 12.7208 77.9613 12.9275 78.2213C13.3275 78.7146 13.5275 79.6613 13.5275 81.0613C13.5275 82.3013 13.3208 83.1613 12.9075 83.6413C12.7008 83.8813 12.4608 84.0546 12.1875 84.1613C11.9208 84.2613 11.6008 84.3113 11.2275 84.3113C10.8542 84.3113 10.5308 84.2613 10.2575 84.1613C9.99082 84.0613 9.75416 83.8946 9.54749 83.6613C9.12749 83.188 8.91749 82.3246 8.91749 81.0713C8.91749 79.678 9.12082 78.728 9.52749 78.2213ZM12.9275 79.0913C12.7808 78.618 12.5708 78.2946 12.2975 78.1213C12.0308 77.948 11.6708 77.8613 11.2175 77.8613C10.7708 77.8613 10.4142 77.948 10.1475 78.1213C9.58082 78.4813 9.29749 79.468 9.29749 81.0813C9.29749 82.2213 9.47082 82.998 9.81749 83.4113C9.99082 83.618 10.1875 83.7646 10.4075 83.8513C10.6342 83.9313 10.9342 83.9713 11.3075 83.9713C11.6808 83.9713 12.0008 83.898 12.2675 83.7513C12.5342 83.598 12.7475 83.3046 12.9075 82.8713C13.0675 82.4313 13.1475 81.8113 13.1475 81.0113C13.1475 80.2046 13.0742 79.5646 12.9275 79.0913ZM15.3032 80.9313V84.2213H14.9432V77.2213H15.3032V80.5913H16.5932L18.7932 77.2213H19.2232L16.9132 80.7413L19.3832 84.2213H18.9232L16.6132 80.9313H15.3032Z" fill="#17324D"/>
<path d="M5.61179 40.8613C6.35179 40.8613 6.93179 40.9979 7.35179 41.2713C7.77179 41.5379 7.98179 41.9513 7.98179 42.5113C7.98179 42.9446 7.87179 43.2813 7.65179 43.5213C7.43179 43.7613 7.08845 43.9479 6.62179 44.0813C7.08845 44.2146 7.44845 44.4113 7.70179 44.6713C7.95512 44.9246 8.08179 45.2913 8.08179 45.7713C8.08179 46.4646 7.85845 46.9513 7.41179 47.2313C6.97179 47.5113 6.38179 47.6513 5.64179 47.6513C4.90179 47.6513 4.30512 47.5146 3.85179 47.2413C3.39845 46.9613 3.17179 46.5079 3.17179 45.8813C3.17179 45.3746 3.28179 44.9946 3.50179 44.7413C3.72845 44.4879 4.06845 44.2679 4.52179 44.0813C4.10845 43.9346 3.79845 43.7413 3.59179 43.5013C3.38512 43.2613 3.28179 42.9279 3.28179 42.5013C3.28179 41.4079 4.05845 40.8613 5.61179 40.8613ZM5.61179 47.3113C6.26512 47.3113 6.77512 47.1979 7.14179 46.9713C7.51512 46.7446 7.70179 46.3479 7.70179 45.7813C7.70179 45.2679 7.54512 44.9079 7.23179 44.7013C7.06512 44.5879 6.90512 44.5046 6.75179 44.4513C6.59845 44.3913 6.39512 44.3279 6.14179 44.2613H4.97179C4.50512 44.3746 4.15179 44.5513 3.91179 44.7913C3.67845 45.0313 3.56179 45.3913 3.56179 45.8713C3.56179 46.8313 4.24512 47.3113 5.61179 47.3113ZM7.59179 42.4613C7.59179 42.0346 7.42179 41.7179 7.08179 41.5113C6.74179 41.3046 6.25179 41.2013 5.61179 41.2013C4.97845 41.2013 4.49512 41.3013 4.16179 41.5013C3.82845 41.7013 3.66179 42.0179 3.66179 42.4513C3.66179 42.8846 3.76512 43.2079 3.97179 43.4213C4.18512 43.6346 4.51845 43.8046 4.97179 43.9313H6.14179C6.62845 43.8179 6.99179 43.6513 7.23179 43.4313C7.47179 43.2113 7.59179 42.8879 7.59179 42.4613ZM9.52749 41.5613C9.74082 41.3013 9.98082 41.1213 10.2475 41.0213C10.5142 40.9146 10.8408 40.8613 11.2275 40.8613C11.6142 40.8613 11.9408 40.9146 12.2075 41.0213C12.4808 41.1213 12.7208 41.3013 12.9275 41.5613C13.3275 42.0546 13.5275 43.0013 13.5275 44.4013C13.5275 45.6413 13.3208 46.5013 12.9075 46.9813C12.7008 47.2213 12.4608 47.3946 12.1875 47.5013C11.9208 47.6013 11.6008 47.6513 11.2275 47.6513C10.8542 47.6513 10.5308 47.6013 10.2575 47.5013C9.99082 47.4013 9.75416 47.2346 9.54749 47.0013C9.12749 46.5279 8.91749 45.6646 8.91749 44.4113C8.91749 43.0179 9.12082 42.0679 9.52749 41.5613ZM12.9275 42.4313C12.7808 41.9579 12.5708 41.6346 12.2975 41.4613C12.0308 41.2879 11.6708 41.2013 11.2175 41.2013C10.7708 41.2013 10.4142 41.2879 10.1475 41.4613C9.58082 41.8213 9.29749 42.8079 9.29749 44.4213C9.29749 45.5613 9.47082 46.3379 9.81749 46.7513C9.99082 46.9579 10.1875 47.1046 10.4075 47.1913C10.6342 47.2713 10.9342 47.3113 11.3075 47.3113C11.6808 47.3113 12.0008 47.2379 12.2675 47.0913C12.5342 46.9379 12.7475 46.6446 12.9075 46.2113C13.0675 45.7713 13.1475 45.1513 13.1475 44.3513C13.1475 43.5446 13.0742 42.9046 12.9275 42.4313ZM15.3032 44.2713V47.5613H14.9432V40.5613H15.3032V43.9313H16.5932L18.7932 40.5613H19.2232L16.9132 44.0813L19.3832 47.5613H18.9232L16.6132 44.2713H15.3032Z" fill="#17324D"/>
<path d="M6.52179 5.34861V11.9486H6.16179V5.73861L4.29179 6.99861L4.12179 6.70861L6.16179 5.34861H6.52179ZM9.52749 5.94861C9.74082 5.68861 9.98082 5.50861 10.2475 5.40861C10.5142 5.30194 10.8408 5.24861 11.2275 5.24861C11.6142 5.24861 11.9408 5.30194 12.2075 5.40861C12.4808 5.50861 12.7208 5.68861 12.9275 5.94861C13.3275 6.44194 13.5275 7.38861 13.5275 8.78861C13.5275 10.0286 13.3208 10.8886 12.9075 11.3686C12.7008 11.6086 12.4608 11.7819 12.1875 11.8886C11.9208 11.9886 11.6008 12.0386 11.2275 12.0386C10.8542 12.0386 10.5308 11.9886 10.2575 11.8886C9.99082 11.7886 9.75416 11.6219 9.54749 11.3886C9.12749 10.9153 8.91749 10.0519 8.91749 8.79861C8.91749 7.40527 9.12082 6.45527 9.52749 5.94861ZM12.9275 6.81861C12.7808 6.34527 12.5708 6.02194 12.2975 5.84861C12.0308 5.67527 11.6708 5.58861 11.2175 5.58861C10.7708 5.58861 10.4142 5.67527 10.1475 5.84861C9.58082 6.20861 9.29749 7.19527 9.29749 8.80861C9.29749 9.94861 9.47082 10.7253 9.81749 11.1386C9.99082 11.3453 10.1875 11.4919 10.4075 11.5786C10.6342 11.6586 10.9342 11.6986 11.3075 11.6986C11.6808 11.6986 12.0008 11.6253 12.2675 11.4786C12.5342 11.3253 12.7475 11.0319 12.9075 10.5986C13.0675 10.1586 13.1475 9.53861 13.1475 8.73861C13.1475 7.93194 13.0742 7.29194 12.9275 6.81861ZM15.1232 5.94861C15.3365 5.68861 15.5765 5.50861 15.8432 5.40861C16.1099 5.30194 16.4365 5.24861 16.8232 5.24861C17.2099 5.24861 17.5365 5.30194 17.8032 5.40861C18.0765 5.50861 18.3165 5.68861 18.5232 5.94861C18.9232 6.44194 19.1232 7.38861 19.1232 8.78861C19.1232 10.0286 18.9165 10.8886 18.5032 11.3686C18.2965 11.6086 18.0565 11.7819 17.7832 11.8886C17.5165 11.9886 17.1965 12.0386 16.8232 12.0386C16.4499 12.0386 16.1265 11.9886 15.8532 11.8886C15.5865 11.7886 15.3499 11.6219 15.1432 11.3886C14.7232 10.9153 14.5132 10.0519 14.5132 8.79861C14.5132 7.40527 14.7165 6.45527 15.1232 5.94861ZM18.5232 6.81861C18.3765 6.34527 18.1665 6.02194 17.8932 5.84861C17.6265 5.67527 17.2665 5.58861 16.8132 5.58861C16.3665 5.58861 16.0099 5.67527 15.7432 5.84861C15.1765 6.20861 14.8932 7.19527 14.8932 8.80861C14.8932 9.94861 15.0665 10.7253 15.4132 11.1386C15.5865 11.3453 15.7832 11.4919 16.0032 11.5786C16.2299 11.6586 16.5299 11.6986 16.9032 11.6986C17.2765 11.6986 17.5965 11.6253 17.8632 11.4786C18.1299 11.3253 18.3432 11.0319 18.5032 10.5986C18.6632 10.1586 18.7432 9.53861 18.7432 8.73861C18.7432 7.93194 18.6699 7.29194 18.5232 6.81861ZM20.8989 8.65861V11.9486H20.5389V4.94861H20.8989V8.31861H22.1889L24.3889 4.94861H24.8189L22.5089 8.46861L24.9789 11.9486H24.5189L22.2089 8.65861H20.8989Z" fill="#17324D"/>
<path d="M55.2783 190.676C54.4391 191.933 18.8319 196.406 1.00006 197.802H311.5V2C309.402 11.4269 281.292 25.7155 278.7 31.4664C273.98 41.9407 255.624 46.1304 255.099 53.9861C253.596 76.5059 236.743 72.8399 228.876 90.6462C225.729 97.7694 224.274 95.1241 222.583 98.5019C218.911 105.834 195.835 123.117 193.213 129.925C190.59 136.733 168.038 150.874 166.989 154.54C165.94 158.206 157.549 160.824 157.024 161.872C156.5 162.919 148.109 164.49 147.06 165.538C146.011 166.585 128.703 174.964 128.179 174.964H120.312C117.69 174.964 116.116 177.059 111.396 181.773C106.676 186.486 56.3272 189.105 55.2783 190.676Z" fill="#FF9700" fill-opacity="0.4"/>
<path d="M110.872 195.389L1 197.8H311.5V166.5C306.78 168.595 282.372 169.547 278.176 172.87C262.966 184.915 245.659 174.964 222.058 183.868C200.734 191.912 188.492 184.391 166.465 191.2C153.79 195.117 128.878 194.866 110.872 195.389Z" fill="#00CF86" fill-opacity="0.4"/>
<path d="M110.872 196.96H1.25842L311.5 197.797V176.5C301.885 177.373 285.413 177.583 278.7 179.678C270.309 182.296 226.778 184.915 222.058 188.057C217.338 191.2 169.087 192.247 166.989 194.342C165.311 196.018 128.878 196.786 110.872 196.96Z" fill="#F83E5A" fill-opacity="0.4"/>
<path d="M0.733948 196.437C18.5658 195.04 54.4391 191.933 55.2783 190.676C56.3272 189.105 106.676 186.486 111.396 181.773C116.116 177.059 117.69 174.964 120.312 174.964C122.934 174.964 127.654 174.964 128.179 174.964C128.703 174.964 146.011 166.585 147.06 165.538C148.109 164.49 156.5 162.919 157.024 161.872C157.549 160.824 165.94 158.206 166.989 154.54C168.038 150.874 190.59 136.733 193.213 129.925C195.835 123.117 218.911 105.834 222.583 98.502C224.274 95.1241 225.729 97.7694 228.876 90.6462C236.743 72.8399 253.596 76.5059 255.099 53.9862C255.624 46.1304 273.98 41.9407 278.7 31.4664C281.292 25.7155 308.595 11.0415 310.693 1.61462" stroke="#FF9700" stroke-width="3"/>
<path d="M1 196.5L110.872 196.96C128.878 196.786 165.311 196.018 166.989 194.342C169.087 192.247 217.338 191.2 222.058 188.057C226.778 184.915 270.309 182.296 278.7 179.678C285.413 177.583 301.885 177.373 311.5 176.5" stroke="#F83E5A" stroke-width="3"/>
<path d="M0.5 196.5L110.872 195.389C128.878 194.866 153.79 195.117 166.465 191.2C188.492 184.391 200.734 191.912 222.058 183.868C245.659 174.964 262.966 184.915 278.176 172.87C282.372 169.547 306.78 168.595 311.5 166.5" stroke="#00CF86" stroke-width="3"/>
</svg>