<svg width="24" height="24" viewBox="0 0 24 24" fill="none" xmlns="http://www.w3.org/2000/svg">
<path fill-rule="evenodd" clip-rule="evenodd" d="M5 8.99922C3.34315 8.99922 2 10.3424 2 11.9992C2 13.6561 3.34315 14.9992 5 14.9992H5.5L7 19.2992C7.3348 20.2918 8.25289 20.9704 9.3 20.9992H9.5C9.97603 21.0164 10.4281 20.7903 10.7 20.3992C11.0148 20.003 11.0913 19.4677 10.9 18.9992L9.6 14.9992H11.4L20 18.7992V4.69922L11.4 8.99922H5ZM10 19.2992C10.0307 19.4725 9.99501 19.6511 9.9 19.7992L9.5 19.9992H9.3C8.66955 19.9932 8.11013 19.5937 7.9 18.9992L6.6 14.9992H8.5L10 19.2992ZM3 11.9992C3 13.1038 3.89543 13.9992 5 13.9992H11V9.99922H5C3.89543 9.99922 3 10.8946 3 11.9992ZM19 17.1992L12 14.1992V9.79922L19 6.29922V17.1992ZM21 14.9992H22V8.99922H21V14.9992Z" fill="#0073E6"/>
</svg>